<?xml version="1.0" encoding="utf-8"?>
<!-- Generator: Adobe Illustrator 21.1.0, SVG Export Plug-In . SVG Version: 6.00 Build 0)  -->
<svg version="1.1" id="Layer_1" xmlns="http://www.w3.org/2000/svg" xmlns:xlink="http://www.w3.org/1999/xlink" x="0px" y="0px"
	 viewBox="0 0 541 500" style="enable-background:new 0 0 541 500;" xml:space="preserve">
<style type="text/css">
	.st0{fill:#F1C418;}
	.st1{fill:#85AE40;}
	.st2{fill:#2E66B1;}
	.st3{fill:#ED3794;}
	.st4{fill:#F47A62;}
</style>
<path class="st0" d="M104,186.9l1.7-6.1l5.6,1.6c1.2,0.3,2.4-0.4,2.8-1.6c0.3-1.2-0.4-2.4-1.6-2.8l-5.6-1.6l1.5-5.5
	c0.3-1.2-0.4-2.4-1.6-2.8c-1.2-0.3-2.4,0.4-2.8,1.6l-1.5,5.5l-6-1.7c-1.2-0.3-2.4,0.4-2.8,1.6c-0.3,1.2,0.4,2.4,1.6,2.8l6,1.7
	l-1.7,6.1c-0.3,1.2,0.4,2.4,1.6,2.8l0,0C102.5,188.8,103.7,188.1,104,186.9z"/>
<path class="st1" d="M415.3,342l-4.4-4.6l4.2-4c0.9-0.9,0.9-2.3,0.1-3.2s-2.3-0.9-3.2-0.1l-4.2,4l-4-4.1c-0.9-0.9-2.3-0.9-3.2-0.1
	c-0.9,0.9-0.9,2.3-0.1,3.2l4,4.1l-4.5,4.3c-0.9,0.9-0.9,2.3-0.1,3.2c0.9,0.9,2.3,0.9,3.2,0.1l4.5-4.3l4.4,4.6
	c0.9,0.9,2.3,0.9,3.2,0.1v0C416.1,344.4,416.2,342.9,415.3,342z"/>
<path class="st1" d="M25.4,469.6L21,465l4.2-4c0.9-0.9,0.9-2.3,0.1-3.2c-0.9-0.9-2.3-0.9-3.2-0.1l-4.2,4l-4-4.1
	c-0.9-0.9-2.3-0.9-3.2-0.1c-0.9,0.9-0.9,2.3-0.1,3.2l4,4.1l-4.5,4.3c-0.9,0.9-0.9,2.3-0.1,3.2c0.9,0.9,2.3,0.9,3.2,0.1l4.5-4.3
	l4.4,4.6c0.9,0.9,2.3,0.9,3.2,0.1v0C26.2,471.9,26.3,470.5,25.4,469.6z"/>
<path class="st2" d="M173,166.7l5.5-3.2l3,5c0.6,1.1,2,1.4,3.1,0.8c1.1-0.6,1.4-2,0.8-3.1l-3-5l4.9-2.9c1.1-0.6,1.4-2,0.8-3.1
	c-0.6-1.1-2-1.4-3.1-0.8l-4.9,2.9l-3.2-5.4c-0.6-1.1-2-1.4-3.1-0.8s-1.4,2-0.8,3.1l3.2,5.4l-5.5,3.2c-1.1,0.6-1.4,2-0.8,3.1h0
	C170.5,166.9,171.9,167.3,173,166.7z"/>
<path class="st2" d="M231.2,37.9l5.5-3.2l3,5c0.6,1.1,2,1.4,3.1,0.8c1.1-0.6,1.4-2,0.8-3.1l-3-5l4.9-2.9c1.1-0.6,1.4-2,0.8-3.1
	c-0.6-1.1-2-1.4-3.1-0.8l-4.9,2.9l-3.2-5.4c-0.6-1.1-2-1.4-3.1-0.8c-1.1,0.6-1.4,2-0.8,3.1l3.2,5.4l-5.5,3.2c-1.1,0.6-1.4,2-0.8,3.1
	l0,0C228.7,38.2,230.1,38.5,231.2,37.9z"/>
<path class="st2" d="M30.5,82.4l5.5-3.2l3,5c0.6,1.1,2,1.4,3.1,0.8c1.1-0.6,1.4-2,0.8-3.1l-3-5l4.9-2.9c1.1-0.6,1.4-2,0.8-3.1
	c-0.6-1.1-2-1.4-3.1-0.8L37.5,73l-3.2-5.4c-0.6-1.1-2-1.4-3.1-0.8c-1.1,0.6-1.4,2-0.8,3.1l3.2,5.4l-5.5,3.2c-1.1,0.6-1.4,2-0.8,3.1
	h0C28,82.6,29.4,83,30.5,82.4z"/>
<path class="st2" d="M14,295.6l5.5-3.2l3,5c0.6,1.1,2,1.4,3.1,0.8c1.1-0.6,1.4-2,0.8-3.1l-3-5l4.9-2.9c1.1-0.6,1.4-2,0.8-3.1
	c-0.6-1.1-2-1.4-3.1-0.8l-4.9,2.9l-3.2-5.4c-0.6-1.1-2-1.4-3.1-0.8c-1.1,0.6-1.4,2-0.8,3.1l3.2,5.4l-5.5,3.2c-1.1,0.6-1.4,2-0.8,3.1
	h0C11.6,295.8,12.9,296.2,14,295.6z"/>
<path class="st2" d="M372.2,91.7l5.5-3.2l3,5c0.6,1.1,2,1.4,3.1,0.8c1.1-0.6,1.4-2,0.8-3.1l-3-5l4.9-2.9c1.1-0.6,1.4-2,0.8-3.1
	c-0.6-1.1-2-1.4-3.1-0.8l-4.9,2.9l-3.2-5.4c-0.6-1.1-2-1.4-3.1-0.8c-1.1,0.6-1.4,2-0.8,3.1l3.2,5.4l-5.5,3.2c-1.1,0.6-1.4,2-0.8,3.1
	l0,0C369.8,92,371.2,92.4,372.2,91.7z"/>
<path class="st2" d="M231.2,497.1l5.5-3.2l3,5c0.6,1.1,2,1.4,3.1,0.8c1.1-0.6,1.4-2,0.8-3.1l-3-5l4.9-2.9c1.1-0.6,1.4-2,0.8-3.1
	c-0.6-1.1-2-1.4-3.1-0.8l-4.9,2.9l-3.2-5.4c-0.6-1.1-2-1.4-3.1-0.8c-1.1,0.6-1.4,2-0.8,3.1l3.2,5.4l-5.5,3.2c-1.1,0.6-1.4,2-0.8,3.1
	h0C228.7,497.4,230.1,497.7,231.2,497.1z"/>
<path class="st2" d="M81.1,425.1l5.5-3.2l3,5c0.6,1.1,2,1.4,3.1,0.8c1.1-0.6,1.4-2,0.8-3.1l-3-5l4.9-2.9c1.1-0.6,1.4-2,0.8-3.1
	c-0.6-1.1-2-1.4-3.1-0.8l-4.9,2.9l-3.2-5.4c-0.6-1.1-2-1.4-3.1-0.8c-1.1,0.6-1.4,2-0.8,3.1l3.2,5.4l-5.5,3.2c-1.1,0.6-1.4,2-0.8,3.1
	h0C78.7,425.4,80.1,425.8,81.1,425.1z"/>
<path class="st3" d="M187.2,241.1l-5.4-3.2l3-5c0.6-1.1,0.3-2.5-0.8-3.1c-1.1-0.6-2.5-0.3-3.1,0.8l-3,5l-4.9-2.9
	c-1.1-0.6-2.5-0.3-3.1,0.8c-0.6,1.1-0.3,2.5,0.8,3.1l4.9,2.9l-3.2,5.3c-0.6,1.1-0.3,2.5,0.8,3.1c1.1,0.6,2.5,0.3,3.1-0.8l3.2-5.3
	l5.4,3.2c1.1,0.6,2.5,0.3,3.1-0.8v0C188.6,243.1,188.3,241.7,187.2,241.1z"/>
<path class="st3" d="M312.3,74.2l-5.4-3.2l3-5c0.6-1.1,0.3-2.5-0.8-3.1c-1.1-0.6-2.5-0.3-3.1,0.8l-3,5l-4.9-2.9
	c-1.1-0.6-2.5-0.3-3.1,0.8c-0.6,1.1-0.3,2.5,0.8,3.1l4.9,2.9l-3.2,5.3c-0.6,1.1-0.3,2.5,0.8,3.1c1.1,0.6,2.5,0.3,3.1-0.8l3.2-5.3
	l5.4,3.2c1.1,0.6,2.5,0.3,3.1-0.8v0C313.7,76.2,313.3,74.8,312.3,74.2z"/>
<path class="st2" d="M378,408.8l1.9-6.1l5.6,1.7c1.2,0.4,2.4-0.3,2.8-1.5s-0.3-2.4-1.5-2.8l-5.6-1.7l1.7-5.5
	c0.4-1.2-0.3-2.4-1.5-2.8c-1.2-0.4-2.4,0.3-2.8,1.5l-1.7,5.5l-5.9-1.9c-1.2-0.4-2.4,0.3-2.8,1.5c-0.4,1.2,0.3,2.4,1.5,2.8l5.9,1.9
	l-1.9,6.1c-0.4,1.2,0.3,2.4,1.5,2.8l0,0C376.3,410.6,377.6,409.9,378,408.8z"/>
<path class="st3" d="M347.8,259.8l6.1-1.6l1.5,5.6c0.3,1.2,1.5,1.9,2.7,1.6c1.2-0.3,1.9-1.5,1.6-2.7l-1.5-5.6l5.5-1.4
	c1.2-0.3,1.9-1.5,1.6-2.7c-0.3-1.2-1.5-1.9-2.7-1.6l-5.5,1.4l-1.6-6c-0.3-1.2-1.5-1.9-2.7-1.6c-1.2,0.3-1.9,1.5-1.6,2.7l1.6,6
	l-6.1,1.6c-1.2,0.3-1.9,1.5-1.6,2.7l0,0C345.4,259.4,346.6,260.1,347.8,259.8z"/>
<path class="st3" d="M448.8,423.2l6.1-1.6l1.5,5.6c0.3,1.2,1.5,1.9,2.7,1.6c1.2-0.3,1.9-1.5,1.6-2.7l-1.5-5.6l5.5-1.4
	c1.2-0.3,1.9-1.5,1.6-2.7c-0.3-1.2-1.5-1.9-2.7-1.6l-5.5,1.4l-1.6-6c-0.3-1.2-1.5-1.9-2.7-1.6c-1.2,0.3-1.9,1.5-1.6,2.7l1.6,6
	l-6.1,1.6c-1.2,0.3-1.9,1.5-1.6,2.7h0C446.3,422.8,447.6,423.5,448.8,423.2z"/>
<path class="st3" d="M514.8,193.1l6.1-1.6l1.5,5.6c0.3,1.2,1.5,1.9,2.7,1.6c1.2-0.3,1.9-1.5,1.6-2.7l-1.5-5.6l5.5-1.4
	c1.2-0.3,1.9-1.5,1.6-2.7c-0.3-1.2-1.5-1.9-2.7-1.6l-5.5,1.4l-1.6-6c-0.3-1.2-1.5-1.9-2.7-1.6c-1.2,0.3-1.9,1.5-1.6,2.7l1.6,6
	l-6.1,1.6c-1.2,0.3-1.9,1.5-1.6,2.7l0,0C512.3,192.7,513.6,193.4,514.8,193.1z"/>
<path class="st3" d="M60,490.2l6.1-1.6l1.5,5.6c0.3,1.2,1.5,1.9,2.7,1.6c1.2-0.3,1.9-1.5,1.6-2.7l-1.5-5.6L76,486
	c1.2-0.3,1.9-1.5,1.6-2.7c-0.3-1.2-1.5-1.9-2.7-1.6l-5.5,1.4l-1.6-6c-0.3-1.2-1.5-1.9-2.7-1.6c-1.2,0.3-1.9,1.5-1.6,2.7l1.6,6
	l-6.1,1.6c-1.2,0.3-1.9,1.5-1.6,2.7l0,0C57.6,489.8,58.8,490.5,60,490.2z"/>
<path class="st4" d="M219.5,106.3l6.1-1.6l1.5,5.6c0.3,1.2,1.5,1.9,2.7,1.6s1.9-1.5,1.6-2.7l-1.5-5.6l5.5-1.4
	c1.2-0.3,1.9-1.5,1.6-2.7c-0.3-1.2-1.5-1.9-2.7-1.6l-5.5,1.4l-1.6-6c-0.3-1.2-1.5-1.9-2.7-1.6c-1.2,0.3-1.9,1.5-1.6,2.7l1.6,6
	l-6.1,1.6c-1.2,0.3-1.9,1.5-1.6,2.7l0,0C217,105.9,218.3,106.6,219.5,106.3z"/>
<path class="st4" d="M288.3,451.2l6.1-1.6l1.5,5.6c0.3,1.2,1.5,1.9,2.7,1.6c1.2-0.3,1.9-1.5,1.6-2.7l-1.5-5.6l5.5-1.4
	c1.2-0.3,1.9-1.5,1.6-2.7c-0.3-1.2-1.5-1.9-2.7-1.6l-5.5,1.4l-1.6-6c-0.3-1.2-1.5-1.9-2.7-1.6c-1.2,0.3-1.9,1.5-1.6,2.7l1.6,6
	l-6.1,1.6c-1.2,0.3-1.9,1.5-1.6,2.7h0C285.9,450.8,287.1,451.6,288.3,451.2z"/>
<path class="st4" d="M2.3,138l6.1-1.6l1.5,5.6c0.3,1.2,1.5,1.9,2.7,1.6c1.2-0.3,1.9-1.5,1.6-2.7l-1.5-5.6l5.5-1.4
	c1.2-0.3,1.9-1.5,1.6-2.7c-0.3-1.2-1.5-1.9-2.7-1.6l-5.5,1.4l-1.6-6c-0.3-1.2-1.5-1.9-2.7-1.6c-1.2,0.3-1.9,1.5-1.6,2.7l1.6,6
	l-6.1,1.6c-1.2,0.3-1.9,1.5-1.6,2.7l0,0C-0.1,137.6,1.1,138.3,2.3,138z"/>
<path class="st1" d="M388.9,161.4l-3.1-5.5l5.1-2.8c1.1-0.6,1.5-2,0.9-3.1c-0.6-1.1-2-1.5-3.1-0.9l-5.1,2.8l-2.8-5
	c-0.6-1.1-2-1.5-3.1-0.9c-1.1,0.6-1.5,2-0.9,3.1l2.8,5l-5.4,3c-1.1,0.6-1.5,2-0.9,3.1c0.6,1.1,2,1.5,3.1,0.9l5.4-3l3.1,5.5
	c0.6,1.1,2,1.5,3.1,0.9v0C389.1,163.9,389.5,162.5,388.9,161.4z"/>
<path class="st1" d="M93.4,298.6l-3.1-5.5l5.1-2.8c1.1-0.6,1.5-2,0.9-3.1c-0.6-1.1-2-1.5-3.1-0.9l-5.1,2.8l-2.8-5
	c-0.6-1.1-2-1.5-3.1-0.9c-1.1,0.6-1.5,2-0.9,3.1l2.8,5l-5.4,3c-1.1,0.6-1.5,2-0.9,3.1c0.6,1.1,2,1.5,3.1,0.9l5.4-3l3.1,5.5
	c0.6,1.1,2,1.5,3.1,0.9h0C93.6,301.1,94,299.7,93.4,298.6z"/>
<path class="st1" d="M52.3,15.6l-3.1-5.5l5.1-2.8c1.1-0.6,1.5-2,0.9-3.1c-0.6-1.1-2-1.5-3.1-0.9L47,6.2l-2.8-5
	c-0.6-1.1-2-1.5-3.1-0.9c-1.1,0.6-1.5,2-0.9,3.1l2.8,5l-5.4,3c-1.1,0.6-1.5,2-0.9,3.1c0.6,1.1,2,1.5,3.1,0.9l5.4-3l3.1,5.5
	c0.6,1.1,2,1.5,3.1,0.9l0,0C52.5,18.1,52.9,16.7,52.3,15.6z"/>
<path class="st1" d="M275,231.5l-4.4-4.6l4.2-4c0.9-0.9,0.9-2.3,0.1-3.2c-0.9-0.9-2.3-0.9-3.2-0.1l-4.2,4l-4-4.1
	c-0.9-0.9-2.3-0.9-3.2-0.1c-0.9,0.9-0.9,2.3-0.1,3.2l4,4.1l-4.5,4.3c-0.9,0.9-0.9,2.3-0.1,3.2c0.9,0.9,2.3,0.9,3.2,0.1l4.5-4.3
	l4.4,4.6c0.9,0.9,2.3,0.9,3.2,0.1v0C275.9,233.8,275.9,232.4,275,231.5z"/>
<path class="st1" d="M244.8,404.6l-4.4-4.6l4.2-4c0.9-0.9,0.9-2.3,0.1-3.2c-0.9-0.9-2.3-0.9-3.2-0.1l-4.2,4l-4-4.1
	c-0.9-0.9-2.3-0.9-3.2-0.1c-0.9,0.9-0.9,2.3-0.1,3.2l4,4.1l-4.5,4.3c-0.9,0.9-0.9,2.3-0.1,3.2s2.3,0.9,3.2,0.1l4.5-4.3l4.4,4.6
	c0.9,0.9,2.3,0.9,3.2,0.1l0,0C245.6,406.9,245.7,405.5,244.8,404.6z"/>
<path class="st1" d="M346.6,35.8l-4.4-4.6l4.2-4c0.9-0.9,0.9-2.3,0.1-3.2c-0.9-0.9-2.3-0.9-3.2-0.1l-4.2,4l-4-4.1
	c-0.9-0.9-2.3-0.9-3.2-0.1c-0.9,0.9-0.9,2.3-0.1,3.2l4,4.1l-4.5,4.3c-0.9,0.9-0.9,2.3-0.1,3.2c0.9,0.9,2.3,0.9,3.2,0.1l4.5-4.3
	l4.4,4.6c0.9,0.9,2.3,0.9,3.2,0.1v0C347.4,38.1,347.4,36.7,346.6,35.8z"/>
<path class="st1" d="M395.2,477.8l-4.4-4.6l4.2-4c0.9-0.9,0.9-2.3,0.1-3.2s-2.3-0.9-3.2-0.1l-4.2,4l-4-4.1c-0.9-0.9-2.3-0.9-3.2-0.1
	c-0.9,0.9-0.9,2.3-0.1,3.2l4,4.1l-4.5,4.3c-0.9,0.9-0.9,2.3-0.1,3.2c0.9,0.9,2.3,0.9,3.2,0.1l4.5-4.3l4.4,4.6
	c0.9,0.9,2.3,0.9,3.2,0.1v0C396.1,480.1,396.1,478.7,395.2,477.8z"/>
<path class="st3" d="M119.9,106.2l-4.4-4.6l4.2-4c0.9-0.9,0.9-2.3,0.1-3.2c-0.9-0.9-2.3-0.9-3.2-0.1l-4.2,4l-4-4.1
	c-0.9-0.9-2.3-0.9-3.2-0.1c-0.9,0.9-0.9,2.3-0.1,3.2l4,4.1l-4.5,4.3c-0.9,0.9-0.9,2.3-0.1,3.2c0.9,0.9,2.3,0.9,3.2,0.1l4.5-4.3
	l4.4,4.6c0.9,0.9,2.3,0.9,3.2,0.1v0C120.7,108.5,120.8,107.1,119.9,106.2z"/>
<path class="st2" d="M215,312l-6.1-1.6l1.5-5.6c0.3-1.2-0.4-2.4-1.6-2.8c-1.2-0.3-2.4,0.4-2.8,1.6l-1.5,5.6l-5.5-1.5
	c-1.2-0.3-2.4,0.4-2.8,1.6s0.4,2.4,1.6,2.8l5.5,1.5l-1.6,6c-0.3,1.2,0.4,2.4,1.6,2.8s2.4-0.4,2.8-1.6l1.6-6l6.1,1.6
	c1.2,0.3,2.4-0.4,2.8-1.6l0,0C216.9,313.6,216.2,312.3,215,312z"/>
<path class="st3" d="M445,56.6l-6.1-1.6l1.5-5.6c0.3-1.2-0.4-2.4-1.6-2.8c-1.2-0.3-2.4,0.4-2.8,1.6l-1.5,5.6l-5.5-1.5
	c-1.2-0.3-2.4,0.4-2.8,1.6c-0.3,1.2,0.4,2.4,1.6,2.8l5.5,1.5l-1.6,6c-0.3,1.2,0.4,2.4,1.6,2.8c1.2,0.3,2.4-0.4,2.8-1.6l1.6-6
	l6.1,1.6c1.2,0.3,2.4-0.4,2.8-1.6v0C446.9,58.2,446.2,56.9,445,56.6z"/>
<path class="st4" d="M304.6,292.1l-6.2-1.5l1.4-5.7c0.3-1.2-0.5-2.4-1.7-2.7c-1.2-0.3-2.4,0.5-2.7,1.7l-1.4,5.7l-5.6-1.3
	c-1.2-0.3-2.4,0.5-2.7,1.7c-0.3,1.2,0.5,2.4,1.7,2.7l5.6,1.3l-1.5,6.1c-0.3,1.2,0.5,2.4,1.7,2.7c1.2,0.3,2.4-0.5,2.7-1.7l1.5-6.1
	l6.2,1.5c1.2,0.3,2.4-0.5,2.7-1.7l0,0C306.5,293.7,305.8,292.4,304.6,292.1z"/>
<path class="st4" d="M532.9,363.1l-6.2-1.5l1.4-5.7c0.3-1.2-0.5-2.4-1.7-2.7c-1.2-0.3-2.4,0.5-2.7,1.7l-1.4,5.7l-5.6-1.3
	c-1.2-0.3-2.4,0.5-2.7,1.7c-0.3,1.2,0.5,2.4,1.7,2.7l5.6,1.3l-1.5,6.1c-0.3,1.2,0.5,2.4,1.7,2.7s2.4-0.5,2.7-1.7l1.5-6.1l6.2,1.5
	c1.2,0.3,2.4-0.5,2.7-1.7l0,0C534.8,364.6,534.1,363.4,532.9,363.1z"/>
<path class="st4" d="M488.6,143.4l-6.2-1.5l1.4-5.7c0.3-1.2-0.5-2.4-1.7-2.7c-1.2-0.3-2.4,0.5-2.7,1.7l-1.4,5.7l-5.6-1.3
	c-1.2-0.3-2.4,0.5-2.7,1.7c-0.3,1.2,0.5,2.4,1.7,2.7l5.6,1.3l-1.5,6.1c-0.3,1.2,0.5,2.4,1.7,2.7c1.2,0.3,2.4-0.5,2.7-1.7l1.5-6.1
	l6.2,1.5c1.2,0.3,2.4-0.5,2.7-1.7v0C490.6,144.9,489.8,143.7,488.6,143.4z"/>
<path class="st4" d="M45,352.8l-6.2-1.5l1.4-5.7c0.3-1.2-0.5-2.4-1.7-2.7c-1.2-0.3-2.4,0.5-2.7,1.7l-1.4,5.7l-5.6-1.3
	c-1.2-0.3-2.4,0.5-2.7,1.7c-0.3,1.2,0.5,2.4,1.7,2.7l5.6,1.3l-1.5,6.1c-0.3,1.2,0.5,2.4,1.7,2.7c1.2,0.3,2.4-0.5,2.7-1.7l1.5-6.1
	l6.2,1.5c1.2,0.3,2.4-0.5,2.7-1.7h0C47,354.3,46.2,353.1,45,352.8z"/>
<path class="st0" d="M327.3,369l-3-5.6l5.1-2.7c1.1-0.6,1.5-2,0.9-3s-2-1.5-3-0.9l-5.1,2.7l-2.7-5c-0.6-1.1-2-1.5-3-0.9
	c-1.1,0.6-1.5,2-0.9,3l2.7,5l-5.5,2.9c-1.1,0.6-1.5,2-0.9,3s2,1.5,3,0.9l5.5-2.9l3,5.6c0.6,1.1,2,1.5,3,0.9v0
	C327.4,371.4,327.9,370,327.3,369z"/>
<path class="st0" d="M175.8,449.5l-3-5.6l5.1-2.7c1.1-0.6,1.5-2,0.9-3c-0.6-1.1-2-1.5-3-0.9l-5.1,2.7l-2.7-5c-0.6-1.1-2-1.5-3-0.9
	c-1.1,0.6-1.5,2-0.9,3l2.7,5l-5.5,2.9c-1.1,0.6-1.5,2-0.9,3c0.6,1.1,2,1.5,3,0.9l5.5-2.9l3,5.6c0.6,1.1,2,1.5,3,0.9l0,0
	C176,451.9,176.4,450.6,175.8,449.5z"/>
<path class="st0" d="M518.8,497.5l-3-5.6l5.1-2.7c1.1-0.6,1.5-2,0.9-3c-0.6-1.1-2-1.5-3-0.9l-5.1,2.7l-2.7-5c-0.6-1.1-2-1.5-3-0.9
	s-1.5,2-0.9,3l2.7,5l-5.5,2.9c-1.1,0.6-1.5,2-0.9,3c0.6,1.1,2,1.5,3,0.9l5.5-2.9l3,5.6c0.6,1.1,2,1.5,3,0.9v0
	C519,500,519.4,498.6,518.8,497.5z"/>
<path class="st0" d="M492.1,288.5l-3-5.6l5.1-2.7c1.1-0.6,1.5-2,0.9-3c-0.6-1.1-2-1.5-3-0.9l-5.1,2.7l-2.7-5c-0.6-1.1-2-1.5-3-0.9
	c-1.1,0.6-1.5,2-0.9,3l2.7,5l-5.5,2.9c-1.1,0.6-1.5,2-0.9,3c0.6,1.1,2,1.5,3,0.9l5.5-2.9l3,5.6c0.6,1.1,2,1.5,3,0.9h0
	C492.2,290.9,492.7,289.5,492.1,288.5z"/>
<path class="st0" d="M506.1,72.6l-3-5.6l5.1-2.7c1.1-0.6,1.5-2,0.9-3c-0.6-1.1-2-1.5-3-0.9L501,63l-2.7-5c-0.6-1.1-2-1.5-3-0.9
	c-1.1,0.6-1.5,2-0.9,3l2.7,5l-5.5,2.9c-1.1,0.6-1.5,2-0.9,3c0.6,1.1,2,1.5,3,0.9l5.5-2.9l3,5.6c0.6,1.1,2,1.5,3,0.9v0
	C506.3,75,506.7,73.7,506.1,72.6z"/>
<path class="st3" d="M156,379.3l-4.4-4.6l4.2-4c0.9-0.9,0.9-2.3,0.1-3.2c-0.9-0.9-2.3-0.9-3.2-0.1l-4.2,4l-4-4.1
	c-0.9-0.9-2.3-0.9-3.2-0.1s-0.9,2.3-0.1,3.2l4,4.1l-4.5,4.3c-0.9,0.9-0.9,2.3-0.1,3.2c0.9,0.9,2.3,0.9,3.2,0.1l4.5-4.3l4.4,4.6
	c0.9,0.9,2.3,0.9,3.2,0.1v0C156.9,381.6,156.9,380.1,156,379.3z"/>
<path class="st3" d="M44.1,231.5l-4.4-4.6l4.2-4c0.9-0.9,0.9-2.3,0.1-3.2c-0.9-0.9-2.3-0.9-3.2-0.1l-4.2,4l-4-4.1
	c-0.9-0.9-2.3-0.9-3.2-0.1c-0.9,0.9-0.9,2.3-0.1,3.2l4,4.1l-4.5,4.3c-0.9,0.9-0.9,2.3-0.1,3.2c0.9,0.9,2.3,0.9,3.2,0.1l4.5-4.3
	l4.4,4.6c0.9,0.9,2.3,0.9,3.2,0.1v0C44.9,233.8,45,232.4,44.1,231.5z"/>
<path class="st0" d="M303.4,156.4l-4.4-4.6l4.2-4c0.9-0.9,0.9-2.3,0.1-3.2c-0.9-0.9-2.3-0.9-3.2-0.1l-4.2,4l-4-4.1
	c-0.9-0.9-2.3-0.9-3.2-0.1c-0.9,0.9-0.9,2.3-0.1,3.2l4,4.1l-4.5,4.3c-0.9,0.9-0.9,2.3-0.1,3.2c0.9,0.9,2.3,0.9,3.2,0.1l4.5-4.3
	l4.4,4.6c0.9,0.9,2.3,0.9,3.2,0.1v0C304.2,158.7,304.2,157.3,303.4,156.4z"/>
<path class="st0" d="M415.3,12.6l-4.4-4.6l4.2-4c0.9-0.9,0.9-2.3,0.1-3.2c-0.9-0.9-2.3-0.9-3.2-0.1l-4.2,4l-4-4.1
	c-0.9-0.9-2.3-0.9-3.2-0.1c-0.9,0.9-0.9,2.3-0.1,3.2l4,4.1l-4.5,4.3c-0.9,0.9-0.9,2.3-0.1,3.2c0.9,0.9,2.3,0.9,3.2,0.1l4.5-4.3
	l4.4,4.6c0.9,0.9,2.3,0.9,3.2,0.1v0C416.1,15,416.2,13.5,415.3,12.6z"/>
<path class="st0" d="M177.2,27.6l-4.4-4.6l4.2-4c0.9-0.9,0.9-2.3,0.1-3.2c-0.9-0.9-2.3-0.9-3.2-0.1l-4.2,4l-4-4.1
	c-0.9-0.9-2.3-0.9-3.2-0.1c-0.9,0.9-0.9,2.3-0.1,3.2l4,4.1l-4.5,4.3c-0.9,0.9-0.9,2.3-0.1,3.2c0.9,0.9,2.3,0.9,3.2,0.1l4.5-4.3
	l4.4,4.6c0.9,0.9,2.3,0.9,3.2,0.1v0C178.1,29.9,178.1,28.5,177.2,27.6z"/>
<path class="st2" d="M442.7,225.1l-3-5.6l5.1-2.8c1.1-0.6,1.5-2,0.9-3.1c-0.6-1.1-2-1.5-3.1-0.9l-5.1,2.8l-2.7-5
	c-0.6-1.1-2-1.5-3.1-0.9c-1.1,0.6-1.5,2-0.9,3.1l2.7,5l-5.5,3c-1.1,0.6-1.5,2-0.9,3.1c0.6,1.1,2,1.5,3.1,0.9l5.5-3l3,5.6
	c0.6,1.1,2,1.5,3.1,0.9v0C442.9,227.5,443.3,226.2,442.7,225.1z"/>
</svg>
